<?xml version="1.0" encoding="UTF-8"?>
<svg id="Layer_2" data-name="Layer 2" xmlns="http://www.w3.org/2000/svg" viewBox="0 0 657.93 449.25">
  <defs>
    <style>
      .cls-1 {
        fill: #fff;
      }
    </style>
  </defs>
  <g id="Layer_1-2" data-name="Layer 1">
    <g>
      <path class="cls-1" d="m147.89,0c.86.28,1.71.57,2.57.83,7.27,2.18,12.25,8.73,12.26,16.14.02,7.36-5.01,13.96-12.28,16.13-8.2,2.44-17.28-2.02-19.91-10.21-1.52-4.73-2.96-4.88-7.07-4.82-10.58.16-21.12.58-31.51,2.86C54.73,29.1,23.32,56.53,10.29,92.3c-.31.84-.55,1.7-.82,2.56.15.1.3.2.45.3.54-.72,1.12-1.4,1.61-2.15,4.25-6.53,9.18-12.45,15.12-17.53,10.27-8.79,22.19-13.86,35.47-16.01,8.28-1.34,16.6-1.01,24.92-1.01,12.82,0,25.64.09,38.46.1,31.05.03,62.11.04,93.16.07,18.82.02,37.63.06,56.45.1.91,0,1.83.06,2.74.1,2.62.1,4.88-.66,6.77-2.58,5.84-5.93,11.71-11.84,17.61-17.72,8.9-8.88,17.68-17.88,26.78-26.56,17.34-16.54,42.77-5.8,47.44,13.45,3.78,15.58-5.66,31.37-21.24,34.74-3.14.68-6.44.84-9.67.85-19.07.09-38.13.12-57.2.05-3.49-.01-6.15,1.11-8.63,3.6-21.04,21.11-42.18,42.13-63.29,63.18-10.85,10.81-21.69,21.64-32.56,32.43-4.84,4.81-8.69,10.32-11.43,16.55-6.04,13.74-9.14,28.16-8.9,43.17.32,20.33,7.29,38.43,19.38,54.59,4.08,5.45,8.64,10.57,13.15,15.69,11.03,12.51,18.28,26.91,21.88,43.15,3.14,14.17,2.57,28.27-1.08,42.27-4.1,15.7-11.03,29.95-21.88,42.13-12.4,13.92-27.97,22.58-45.83,27.38-7.25,1.95-14.59,3.32-22.11,3.67-.55.03-1.09.26-1.63.39h-7.49c-.72-.14-1.44-.36-2.16-.4-8.71-.47-17.12-2.32-25.27-5.41-14.78-5.61-27.26-14.64-37.78-26.28-20.67-22.85-28.62-49.66-23.79-80.1,2.69-16.96,9.54-32.2,20.7-45.29,5.01-5.88,10.57-11.31,16.02-16.81,16.13-16.26,32.31-32.46,48.5-48.65,24.43-24.44,48.87-48.87,73.33-73.28,10.25-10.23,20.58-20.4,30.84-30.63,19.7-19.63,39.38-39.29,59.05-58.94.61-.61,1.11-1.33,1.92-2.31-1.08-.06-1.63-.11-2.19-.11-22.06,0-44.13-.06-66.19.06-3.29.02-6.66.49-9.86,1.29-9.91,2.47-18.74,7.23-26.84,13.38-8.86,6.72-15.58,15.18-20.28,25.26-4.82,10.36-6.84,21.31-7.04,32.69-.07,3.98-.43,8-1.18,11.9-8.57,44.14-55.53,71.99-99.05,54.18-25.35-10.38-40.56-29.37-45.25-56.53-.51-2.94-.93-5.89-1.4-8.84,0-2,0-4,0-6,.15-.64.35-1.27.45-1.92.7-4.69,1.25-9.4,2.08-14.07,2.57-14.46,7.41-28.07,15.04-40.71C40.21,34.24,78.82,16.66,112.5,15.89c4.16-.09,8.31-.04,12.47-.03,3.15.01,4.05-.58,4.99-3.4.08-.24.16-.47.24-.71,1.92-5.73,5.84-9.35,11.59-11.07.7-.21,1.4-.45,2.1-.68,1.33,0,2.66,0,4,0Z"/>
      <path class="cls-1" d="m497.55,271.13c2.86-.43,5.41-.72,7.92-1.22,4.58-.92,6.1-2.49,6.81-7.04.28-1.8.36-3.64.37-5.47.03-16.32.03-32.65,0-48.97,0-1.99-.23-3.98-.43-5.96-.34-3.18-2.2-5.12-5.19-6.01-1.43-.43-2.9-.73-4.36-1.08-.79-.19-1.59-.37-2.46-.57v-5.32c10.01-1.63,19.74-4.28,29.42-8.56v16.99c1.21-.9,1.96-1.51,2.76-2.06,5.17-3.49,10.26-7.1,15.55-10.41,4.86-3.04,10.26-4.22,16.01-3.69,6.59.6,11.94,3.54,15.99,8.66,1.94,2.45,3.42,5.27,5.19,8.05.4-.25.96-.57,1.49-.94,4.84-3.39,9.63-6.85,14.53-10.15,4.54-3.06,9.49-5.19,15.03-5.61,11.82-.89,21.33,4.53,25.8,15.56,2.22,5.49,2.95,11.25,2.96,17.11.04,14.07-.01,28.15.04,42.22,0,2.57.22,5.15.55,7.7.38,2.97,2.22,4.8,5.1,5.45,2.34.53,4.73.86,7.32,1.31v5.69h-43.69v-5.63c.5-.11,1.03-.26,1.58-.34,1.23-.19,2.48-.32,3.71-.51,5.59-.88,7.47-2.76,8.11-8.38.28-2.47.37-4.98.38-7.47.04-11.66,0-23.32.02-34.98,0-4.26-.33-8.48-1.52-12.6-2.66-9.22-9.64-13.35-19.29-12.22-3.52.41-6.85,1.53-9.86,3.35-3.27,1.97-6.36,4.24-9.53,6.39-.89.6-1.28,1.32-1.18,2.51.28,3.31.49,6.64.5,9.97.05,12.66,0,25.32.04,37.98,0,2.41.13,4.83.34,7.23.42,4.8,2.18,6.83,6.86,7.92,1.93.45,3.92.7,6.07,1.08v5.73h-45v-5.69c2.52-.4,4.92-.68,7.27-1.17,5.04-1.05,6.9-3.17,7.32-8.33.21-2.57.35-5.15.35-7.73.04-11.24.06-22.49,0-33.73-.03-4.41-.16-8.83-1.33-13.13-.91-3.35-2.27-6.46-4.95-8.79-3.92-3.41-8.63-4.15-13.58-3.63-4.56.48-8.66,2.32-12.49,4.75-2.39,1.51-4.62,3.26-6.97,4.83-1.16.78-1.54,1.74-1.53,3.14.06,7.83.03,15.66.03,23.48,0,8.74-.03,17.49.02,26.23.01,2.16.21,4.32.46,6.46.41,3.44,2.31,5.64,5.75,6.35,2.28.47,4.58.82,7.07,1.25v5.69h-45.2c-.05-.48-.13-.88-.14-1.27-.02-1.41,0-2.82,0-4.4Z"/>
      <path class="cls-1" d="m308.66,279.04c-9.65-3.89-17.12-9.26-18.05-20.62,7.39-3.02,13.62-7.44,18.74-13.7-.77-.46-1.37-.85-1.99-1.19-12.15-6.62-17.56-18.84-15.73-31.88,2.12-15.18,11.51-24.06,25.46-28.7,10.36-3.45,20.54-2.4,30.34,2.22,1.9.9,3.73,1.22,5.76,1.08,7.73-.51,15.43-1.16,23.02-2.78.56-.12,1.14-.15,1.59-.21,1.48,1.01,1.68,2.17.83,3.51-1.59,2.53-3.15,5.08-4.83,7.55-1.11,1.63-2.7,2.3-4.75,2.01-2.39-.34-4.8-.47-7.2-.7-.9-.08-1.8-.17-3.04-.29.49.91.81,1.56,1.18,2.18,8.83,14.75,6.19,39.95-17.92,48.32-7.72,2.68-15.61,3.26-23.61,1.58-1.76-.37-3.08-.09-4.1,1.39-1.17,1.71-2.57,3.31-3.44,5.16-1.42,3.02-.51,5.91,2.17,7.95,2.05,1.56,4.43,2.39,6.96,2.45,5.41.12,10.82.02,16.22.09,5.82.07,11.65.11,17.46.41,3.84.2,7.53,1.3,11.03,2.94,7.97,3.72,12.11,10.11,12.91,18.76.96,10.3-2.86,18.94-9.54,26.45-8.59,9.66-19.45,15.49-31.99,18.23-9.43,2.06-18.84,1.96-28.11-.97-6.32-2-11.81-5.33-16.1-10.48-1.94-2.32-3.42-4.91-4.4-7.78-2.29-6.71-1.1-12.75,3.95-17.69,4.51-4.43,9.36-8.51,14.07-12.73.92-.83,1.91-1.59,3.09-2.57Zm25.3.25l-.03.56c-2.91,0-5.83-.14-8.73.04-3.76.23-7.45.98-10.59,3.26-3.75,2.72-6.86,6.05-9.08,10.15-3.7,6.83-2.67,14.14,2.74,19.74,2.53,2.62,5.56,4.47,8.92,5.82,6.66,2.67,13.59,3.02,20.62,2.22,5.09-.58,9.96-1.94,14.34-4.7,7.84-4.95,11.52-12.06,10.54-21.31-.66-6.19-3.89-10.7-9.81-13.02-1.31-.51-2.68-1.01-4.06-1.17-4.94-.6-9.9-1.06-14.86-1.57Zm13.15-63.2c-.46-3.37-.73-6.78-1.42-10.1-1.07-5.14-3.21-9.8-7.09-13.49-7.11-6.76-17.79-6.01-23.68,1.82-1.52,2.03-2.81,4.39-3.58,6.79-2.99,9.28-2.58,18.54,1.08,27.59,1.62,4,4.13,7.4,7.77,9.86,6.56,4.43,14.78,3.53,20.23-2.21,1.98-2.09,3.37-4.53,4.35-7.22,1.54-4.2,2.1-8.55,2.34-13.03Z"/>
      <path class="cls-1" d="m487.73,271.79c-10.81,2.49-21.4,4.94-32.26,7.44-.37-2.43-.11-4.97-.16-7.49-.05-2.49-.01-4.98-.01-7.96-.87.6-1.44.98-1.98,1.38-3.82,2.81-7.52,5.79-11.47,8.4-4.98,3.29-10.41,5.48-16.48,5.93-14.24,1.07-24.76-6.71-27.56-20.78-.76-3.81-1.05-7.76-1.08-11.65-.13-13.74-.03-27.47-.07-41.21,0-2.24-.22-4.49-.5-6.71-.39-3.17-2.2-5.12-5.38-5.72-2.2-.41-4.41-.82-6.8-1.27v-5.35c9.94-1.28,19.89-2.56,29.93-3.85.07.3.2.61.19.92-.17,7.74-.46,15.47-.51,23.21-.07,12.4-.05,24.81.08,37.21.03,2.72.44,5.49,1.12,8.13,2.33,8.95,8.88,13.82,18.12,13.67,8.43-.13,15.39-3.77,21.51-9.26.48-.43.67-1.26.86-1.93.13-.46.03-.99.03-1.49,0-15.65.03-31.3-.03-46.96,0-2.4-.23-4.82-.64-7.18-.5-2.86-2.26-4.83-5.17-5.44-2.76-.58-5.56-.95-8.35-1.41-.64-.11-1.28-.21-2.03-.33v-5.26c11.07-1.28,21.95-2.54,33.09-3.83v2.99c0,21.81-.01,43.63.02,65.44,0,2.57.11,5.16.39,7.72.46,4.31,1.91,5.78,6.23,6.47,1.47.24,2.98.22,4.48.31,1.4.08,2.8.14,4.28.21.55,2.09.38,4.03.16,5.67Z"/>
      <path class="cls-1" d="m278.8,271.12v5.67h-46.38v-5.73c1.54-.22,3.16-.47,4.78-.67,7.02-.9,9.2-3.24,9.58-10.34.07-1.25.08-2.5.08-3.74,0-15.99.02-31.97-.02-47.96,0-2.15-.21-4.32-.5-6.45-.35-2.53-1.85-4.26-4.28-5.04-1.81-.59-3.68-.99-5.54-1.45-.88-.22-1.78-.36-2.8-.57v-5.15c10.19-1.83,20.12-4.44,30.07-8.49v3.23c0,23.9-.01,47.79.02,71.69,0,2.24.16,4.49.45,6.71.54,4.12,2.31,6.08,6.36,6.98,2.59.57,5.24.86,8.17,1.33Z"/>
      <path class="cls-1" d="m265.25,149.19c.05,6.28-4.93,11.45-11.03,11.47-6,.02-11.32-5.27-11.36-11.28-.04-6.44,5.06-11.65,11.44-11.69,6.11-.04,10.89,4.99,10.94,11.5Z"/>
    </g>
  </g>
</svg>