<?xml version="1.0" encoding="UTF-8"?>
<svg id="Layer_2" data-name="Layer 2" xmlns="http://www.w3.org/2000/svg" viewBox="0 0 810.81 225.41">
  <defs>
    <style>
      .cls-1 {
        fill: #fff;
      }
    </style>
  </defs>
  <g id="Layer_1-2" data-name="Layer 1">
    <g>
      <path class="cls-1" d="m0,63.54c.4-2.05.82-4.1,1.18-6.16,3.4-19.41,13.6-33.96,31.11-43.21,8.95-4.73,18.6-6.63,28.69-6.45.26,0,.53,0,.79.01q2.92.05,4-2.55c1.59-3.85,5.46-5.85,9.64-4.99,3.68.75,6.61,4.5,6.53,8.34-.08,3.9-3.02,7.42-6.79,8.12-4.16.78-7.97-1.33-9.47-5.26-.91-2.36-.91-2.35-3.39-2.38-9.16-.13-18.07,1.03-26.49,4.87-14.3,6.52-24.38,17.05-30.21,31.63-.21.53-.33,1.08-.23,1.75.37-.51.74-1.02,1.1-1.54,5.76-8.49,13.54-14.02,23.74-15.77,3.15-.54,6.4-.73,9.6-.75,11.11-.05,22.21.07,33.32.08,21.95.02,43.9,0,65.86.07,2.09,0,3.57-.65,5.01-2.11,6.92-7.01,13.93-13.93,20.92-20.88,2.24-2.23,4.84-3.76,8-4.34,7.98-1.48,15.95,4.44,16.77,12.5.86,8.54-5.29,15.7-13.91,15.89-7.69.17-15.38.06-23.07.09-2.69,0-5.39.07-8.08.06-1.47,0-2.64.51-3.68,1.56-13.41,13.43-26.84,26.84-40.27,40.25-2.32,2.32-4.62,4.67-7.04,6.88-3.82,3.5-6.44,7.74-8.13,12.6-2.13,6.13-3.3,12.4-3.12,18.91.27,9.91,3.7,18.7,9.54,26.6,1.91,2.58,4.02,5.02,6.18,7.4,5.81,6.42,9.7,13.82,11.58,22.26,2.21,9.89.85,19.43-3.01,28.68-6.36,15.27-17.86,24.42-33.88,28.06-2.93.67-5.93,1.09-8.89,1.62h-5.52c-1.8-.33-3.6-.65-5.4-.99-8.27-1.56-15.52-5.26-21.77-10.82-15.19-13.52-20.47-30.19-15.36-49.91,2.24-8.65,7.07-15.86,13.43-22.1,6.93-6.81,13.77-13.73,20.65-20.59,16.22-16.19,32.45-32.39,48.68-48.57,13.58-13.54,27.17-27.07,40.76-40.61.3-.3.52-.67.93-1.22-.71-.04-1.14-.08-1.58-.08-10.78,0-21.56-.02-32.34.02-1.56,0-3.17.16-4.68.56-15.49,4.06-26.96,16.51-27.61,33.93-.08,2.16-.11,4.34-.44,6.47-3.37,21.57-24.11,34.54-43.31,30.7-14.69-2.94-26.28-14.12-29.21-28.76-.37-1.85-.75-3.7-1.12-5.55,0-1.44,0-2.89,0-4.33Z"/>
      <path class="cls-1" d="m297.9,156.37v-3.18c1.36-.21,2.64-.38,3.92-.62,2.84-.52,3.95-1.72,4.25-4.59.07-.65.09-1.31.09-1.97,0-7.88.06-15.75-.03-23.63-.02-1.94-.33-3.94-.86-5.81-1.18-4.14-3.94-6.1-8.24-6.3-2.43-.11-4.73.38-6.82,1.56-2.05,1.16-3.97,2.54-5.96,3.81-.75.48-.95,1.12-.95,1.99.03,9.12,0,18.25.03,27.37,0,1.18.13,2.36.26,3.53.28,2.42,1.26,3.52,3.61,4.02,1.15.24,2.31.4,3.62.61v3.17h-25.47c0-.8-.02-1.51,0-2.22.01-.31.1-.62.17-.97,1.37-.2,2.66-.36,3.94-.58,2.9-.51,3.96-1.64,4.23-4.56.1-1.04.1-2.1.1-3.15,0-8.73,0-17.46,0-26.19,0-1.11-.03-2.23-.11-3.34-.17-2.22-1.31-3.65-3.52-4.16-1.08-.25-2.16-.51-3.34-.79v-2.96c5.53-.94,10.98-2.45,16.45-4.74v9.2c.6-.32.99-.48,1.33-.71,2.83-1.91,5.59-3.91,8.48-5.74,3.08-1.95,6.47-2.89,10.15-2.34,4.71.71,7.99,3.43,10.24,7.5.31.57.6,1.15.96,1.86.5-.32.92-.58,1.33-.86,2.64-1.83,5.23-3.75,7.93-5.49,3.74-2.41,7.76-3.71,12.33-2.88,4.86.89,8.22,3.59,10.23,8.02,1.47,3.23,1.89,6.68,1.91,10.18.04,8.47.04,16.93.07,25.4,0,.78.07,1.58.19,2.35.3,1.9,1.43,3.04,3.33,3.38,1.22.22,2.44.4,3.78.62v3.19h-24.57v-3.18c1.16-.2,2.32-.37,3.46-.6,2.68-.54,3.73-1.65,4-4.35.13-1.37.19-2.75.19-4.13.02-6.63.05-13.26-.02-19.89-.02-2.02-.15-4.08-.58-6.05-1.46-6.7-6.04-8.78-12.21-7.63-3.77.7-6.84,2.95-9.75,5.33-.3.25-.53.77-.52,1.16.08,9.91.15,19.81.34,29.72.09,4.43,1.29,5.58,5.73,6.16.51.07,1.02.13,1.63.21.05.58.13,1.08.14,1.59.01.51-.04,1.02-.07,1.64h-25.39Z"/>
      <path class="cls-1" d="m159.08,157.68c-5.39-2.29-9.6-5.24-10.07-11.57,4.05-1.75,7.61-4.11,10.45-7.68-.42-.27-.72-.5-1.05-.68-11.77-6.27-11.36-22.17-2.94-29.28,7.51-6.34,15.94-7.55,25-3.67,1.52.65,2.96.94,4.56.74,3.9-.49,7.81-.96,11.72-1.42.6-.07,1.25-.49,1.78.28.49.71.04,1.24-.19,1.83-.1.24-.23.47-.36.7-2.26,4.19-3.27,4.71-7.95,4.06-.77-.11-1.55-.15-2.53-.24.24.53.36.88.54,1.21,6.29,11.35.86,24.19-11.67,27.58-3.74,1.01-7.52,1.17-11.31.45-1.33-.26-2.31.04-3.06,1.12-.52.75-1.1,1.48-1.48,2.31-.89,1.93-.39,3.6,1.38,4.8,1.29.87,2.74,1.25,4.28,1.25,4.93,0,9.86-.09,14.78,0,2.15.04,4.3.4,6.43.76,1.08.18,2.14.62,3.15,1.07,4.65,2.06,6.99,5.76,7.43,10.74.46,5.35-1.41,9.94-4.77,13.96-5.14,6.14-11.82,9.7-19.62,11.14-4.96.92-9.93.83-14.8-.74-3.44-1.1-6.5-2.85-8.83-5.66-.91-1.1-1.73-2.33-2.31-3.64-1.8-4.07-1.27-7.85,1.94-11.03,2.1-2.08,4.35-4,6.55-5.96.88-.78,1.81-1.51,2.93-2.44Zm14.54.16c-2.5.18-4.54.21-6.54.51-5.57.82-8.63,4.56-10.53,9.46-.82,2.12-.44,4.27.55,6.29,1.34,2.72,3.57,4.53,6.32,5.62,6.35,2.53,12.71,2.33,18.9-.47,3.29-1.49,5.63-4,6.73-7.55,1.52-4.92.23-11.74-7.48-13.03-2.77-.46-5.59-.6-7.95-.83Zm-13.98-37.08c-.05,2.6.32,5.25,1.28,7.8.89,2.37,2.2,4.47,4.24,6.03,3.7,2.84,8.53,2.47,11.77-.88,1.46-1.5,2.35-3.31,2.88-5.3,1.22-4.62,1.11-9.24-.48-13.74-.6-1.7-1.53-3.37-2.68-4.75-2.36-2.83-5.48-3.99-9.16-3.06-2.64.66-4.48,2.38-5.79,4.7-1.58,2.82-2.1,5.9-2.06,9.2Z"/>
      <path class="cls-1" d="m420.01,121.88c0,2.99,0,5.68,0,8.36,0,4.4-.04,8.79.04,13.19.1,5.29,1.54,6.84,6.79,7.54,1.55.2,3.1.39,4.75.6v3.24h-32.67c-.04-.55-.1-1.05-.11-1.55,0-.51.05-1.03.09-1.66,1.4-.2,2.75-.41,4.1-.6,4.82-.68,6.25-2.21,6.4-7.04.08-2.69.04-5.38.05-8.07,0-14.7.01-29.39-.01-44.09,0-1.7-.18-3.4-.36-5.09-.3-2.72-1.97-4.19-4.58-4.66-1.81-.32-3.63-.56-5.56-.85v-3.25c.47-.05.96-.16,1.46-.16,9.99,0,19.98-.06,29.96.02,4.34.03,8.64.53,12.8,1.89,9.15,3.01,14.02,9.92,14.28,19.31.35,12.26-7.06,21.53-19.26,24.33-4.41,1.01-8.81,1.27-13.21-.21-1.54-.52-3.16-.81-4.98-1.26Zm.08-4.23c4.54,1.55,8.98,1.92,13.51.83,6.42-1.55,10.37-5.62,11.98-11.98.85-3.35.89-6.78.42-10.17-.61-4.37-2.43-8.21-6.14-10.82-5.16-3.63-10.93-4.15-16.95-2.96-1.49.29-2.41,1.33-2.67,2.84-.15.9-.21,1.83-.21,2.74-.01,9.25-.01,18.51,0,27.76,0,.52.05,1.04.08,1.76Z"/>
      <path class="cls-1" d="m578.2,154.59c-.13.14-.2.19-.2.23.05,6.56,0,13.12.21,19.67.11,3.4,1.42,4.63,4.74,5.27,1.61.31,3.24.51,4.98.78v3.08c-1.38.43-26.04.51-28.09.06v-3.13c1.48-.26,2.89-.52,4.31-.75,2.48-.4,3.82-1.89,4.08-4.34.12-1.11.18-2.22.18-3.34.01-18.77.01-37.54,0-56.31,0-.98-.03-1.97-.16-2.94-.23-1.73-1.17-2.89-2.92-3.3-1.52-.35-3.05-.68-4.67-1.03v-2.81c5.71-1.7,11.39-3.4,17.19-5.13v8.78c.59-.21,1.02-.29,1.37-.49,2.51-1.42,5.01-2.87,7.52-4.31.23-.13.46-.25.69-.38,3.66-2.15,7.46-3.45,11.82-2.43,4.36,1.02,8.12,2.98,11.08,6.35,3.55,4.04,5.47,8.8,5.74,14.13.63,12.49-4.78,21.88-15.16,28.57-4.29,2.77-9.02,4.52-14.03,5.47-2.11.4-4.16-.29-6.18-.86-.87-.24-1.71-.57-2.51-.84Zm-.28-24.88c0,4.79.05,9.58-.03,14.37-.02,1.32.36,2.22,1.43,2.98,8.21,5.95,19.09,3.99,23.86-5.26,2.23-4.32,2.92-8.95,2.86-13.72-.05-4.47-.98-8.73-3.48-12.53-3.97-6.04-11.11-8.63-17.89-5.6-1.85.83-3.59,1.9-5.39,2.83-1.05.55-1.4,1.35-1.38,2.54.06,4.79.03,9.58.03,14.37Z"/>
      <path class="cls-1" d="m690.32,154.83v-3.2c1.2-.22,2.35-.41,3.49-.64,2.1-.41,3.43-1.6,3.65-3.79.16-1.56.31-3.13.32-4.7.03-6.63.09-13.25-.02-19.88-.04-2.27-.28-4.6-.86-6.79-1.22-4.6-4.44-6.91-9.2-7.12-3.87-.17-7.18,1.28-10.28,3.36-3.39,2.27-3.38,2.29-3.38,6.3,0,8.46,0,16.93,0,25.39,0,1.24.05,2.5.2,3.73.26,1.99,1.43,3.18,3.43,3.5,1.22.2,2.45.38,3.82.6v3.19h-25.43v-3.16c1.24-.2,2.52-.39,3.8-.61,3.11-.54,4.19-1.69,4.42-4.8.1-1.37.13-2.75.13-4.13.01-8.13.01-16.27,0-24.4,0-1.31-.08-2.62-.18-3.93-.17-2.15-1.33-3.51-3.43-4.03-1.13-.28-2.28-.5-3.5-.77v-2.79c5.56-1.56,11.01-3.09,16.68-4.68v8.73c.86-.53,1.4-.85,1.93-1.19,2.58-1.69,5.12-3.44,7.75-5.05,2.61-1.6,5.43-2.61,8.55-2.56,6.2.1,11.1,3.45,13.44,9.19,1.26,3.09,1.65,6.32,1.65,9.62-.02,7.68-.02,15.35,0,23.03,0,1.37.12,2.75.29,4.11.28,2.17,1.19,3.15,3.3,3.61,1.21.26,2.45.41,3.85.64v3.24h-24.43Z"/>
      <path class="cls-1" d="m241.31,149.26c-.55.43-1.08.89-1.65,1.29-2.65,1.81-5.2,3.8-8,5.36-3.4,1.89-7.11,2.52-11.04,1.83-5.03-.89-8.47-3.65-10.39-8.32-1.06-2.57-1.54-5.28-1.55-8.06-.03-8.27-.01-16.53-.06-24.8,0-1.3-.17-2.61-.33-3.91-.22-1.72-1.3-2.66-2.95-3-1.21-.25-2.43-.47-3.75-.72v-3.01c5.56-.72,11.12-1.44,16.85-2.18,0,.57,0,1.02,0,1.46-.09,11.02-.21,22.04-.24,33.06,0,1.55.32,3.14.73,4.64,1.35,4.9,4.91,7.54,10.01,7.49,4.71-.05,8.62-2.03,12.04-5.11.38-.34.68-1,.68-1.52,0-9.32.06-18.63-.12-27.95-.1-4.96-1.23-5.95-6.2-6.55-.9-.11-1.81-.2-2.84-.31v-3.02c6.15-.72,12.31-1.43,18.69-2.18,0,.87,0,1.64,0,2.41,0,12.33,0,24.67,0,37,0,.92,0,1.84.06,2.75.2,2.96,1.35,4.1,4.3,4.28,1.37.08,2.74.1,4.24.15v3.27c-5.93,1.36-11.91,2.73-18.03,4.14v-8.24c-.15-.08-.3-.17-.44-.25Z"/>
      <path class="cls-1" d="m770.15,150.44c-3.36,1.97-6.51,3.85-9.7,5.65-.45.26-1.14.27-1.69.17-3.09-.53-5.23-2.31-6.48-5.15-.28-.64-.53-1.31-.86-2.13-.87.58-1.61,1.08-2.37,1.57-2.16,1.37-4.3,2.77-6.49,4.09-4.92,2.98-9.66,2.05-13.94-1.2-4.74-3.59-6.59-8.55-5.57-14.44.48-2.78,1.98-5.04,4.35-6.54,1.7-1.08,3.56-1.96,5.44-2.7,4.58-1.79,9.22-3.41,13.81-5.16,1.28-.49,2.51-1.15,3.68-1.85.43-.26.91-.87.92-1.33.08-3.23-.13-6.44-1.66-9.39-1.79-3.44-4.59-5.28-8.52-5.36-2.76-.05-4.86,1.12-6.2,3.46-.81,1.41-1.34,2.98-1.94,4.5-.34.85-.53,1.76-.85,2.62-.88,2.32-2.75,3.12-5.06,2.17-1.32-.55-2.35-1.44-3.04-2.68-.96-1.71-.78-3.22.54-4.7.26-.29.54-.58.85-.82,5.21-4.08,10.84-7.35,17.18-9.38,2.19-.7,4.29-.39,6.39.16,6.61,1.75,11.15,7.34,11.5,14.31.16,3.14.07,6.3.07,9.45,0,5.12-.03,10.24.03,15.36.02,1.36.17,2.77.53,4.08.73,2.68,2.62,3.65,5.3,2.88.81-.23,1.59-.58,2.59-.95.39,1.06.76,2.08,1.21,3.32Zm-18.97-23.81c-.57.23-.98.37-1.38.55-3.06,1.35-6.12,2.7-9.16,4.08-1.13.52-2.25,1.08-3.32,1.71-3.4,2-4.64,5.02-4.06,8.85.71,4.71,5.25,7.98,9.91,7.08,2.41-.46,4.61-1.47,6.63-2.88,1.04-.73,1.55-1.57,1.53-2.94-.09-4.92-.03-9.84-.04-14.76,0-.5-.06-1-.11-1.7Z"/>
      <path class="cls-1" d="m497.19,76.77v-2.76c5.84-1.32,11.62-2.62,17.62-3.98v2.2c0,23.29,0,46.58.01,69.87,0,1.64.1,3.28.29,4.9.27,2.35,1.34,3.46,3.72,3.94,1.4.28,2.82.44,4.34.66v2.97c-1.39.42-21.14.6-26.23.21v-3.2c1.46-.22,2.82-.4,4.17-.63,2.25-.4,3.68-1.66,3.95-4,.13-1.17.23-2.35.23-3.53.01-19.62.01-39.23,0-58.85,0-1.05-.06-2.1-.19-3.14-.26-2.05-1.43-3.33-3.47-3.77-1.46-.31-2.93-.6-4.46-.92Z"/>
      <path class="cls-1" d="m806.82,103.05c.57,4.39,1.13,8.66,1.72,13.13-1.05.28-2.1.57-3.31.89-.29-.67-.53-1.33-.84-1.95-.91-1.81-1.65-3.74-2.81-5.38-2.64-3.72-6.47-4.79-10.79-4.02-2.6.46-4.25,2.26-5.03,4.76-1.09,3.5-.12,6.95,2.85,9.14,1.94,1.43,4.13,2.52,6.25,3.69,2.53,1.38,5.12,2.65,7.66,4.02.86.47,1.67,1.04,2.46,1.63,6.78,5.06,7.79,14.36,2.26,20.79-3.05,3.55-7.04,5.43-11.54,6.25-5.79,1.06-11.35.04-16.77-2.07-1.18-.46-1.89-1.07-2.07-2.5-.51-4.02-1.23-8.01-1.9-12.24,1.22-.24,2.28-.44,3.47-.67.22.51.44.97.6,1.44.88,2.56,1.94,5.02,3.62,7.17,2.99,3.84,6.96,5.51,11.76,5,2.85-.3,5.11-1.77,6.24-4.49,1.3-3.13,1.03-6.24-1.06-8.93-1.06-1.36-2.51-2.51-3.97-3.46-1.8-1.18-3.83-2.01-5.71-3.08-2.5-1.43-5.06-2.8-7.4-4.47-3.09-2.22-5.15-5.2-5.57-9.13-.59-5.57,1.37-10.02,5.81-13.39,3.08-2.33,6.66-3.35,10.44-3.69,4.63-.42,9.12.53,13.63,1.56Z"/>
      <path class="cls-1" d="m650.1,151.6v3.2h-26.06v-3.2c1.38-.21,2.67-.37,3.94-.62,2.56-.5,3.62-1.62,3.94-4.19.16-1.3.27-2.61.28-3.92.02-8.65.02-17.31,0-25.96,0-1.18-.16-2.35-.24-3.53-.14-1.95-1.24-3.12-3.07-3.62-1.32-.36-2.66-.63-4.07-.96v-2.56c5.65-1.58,11.17-3.12,16.89-4.72v2.02c0,12.98-.01,25.96.01,38.95,0,1.57.15,3.14.3,4.7.23,2.21,1.66,3.34,3.71,3.76,1.4.29,2.83.44,4.37.66Z"/>
      <path class="cls-1" d="m491.74,151.6v3.21h-26.12v-3.19c1.36-.21,2.65-.38,3.93-.62,2.61-.5,3.64-1.51,4.04-4.12.19-1.22.19-2.49.19-3.73.01-8.86.01-17.72,0-26.58,0-1.05-.03-2.1-.14-3.14-.2-1.89-1.23-3.14-3.08-3.65-.82-.22-1.66-.38-2.49-.58-.56-.13-1.12-.27-1.71-.42v-2.53c5.62-1.56,11.15-3.1,16.93-4.7,0,.66,0,1.42,0,2.17,0,12.73,0,25.46.01,38.19,0,1.57.11,3.15.26,4.71.26,2.62,1.41,3.85,4.02,4.35,1.34.26,2.7.41,4.15.63Z"/>
      <path class="cls-1" d="m530.24,108.8v-2.53c5.63-1.57,11.21-3.12,16.95-4.72,0,.72,0,1.5,0,2.27,0,12.6,0,25.2.01,37.8,0,1.64.1,3.28.25,4.91.25,2.74,1.39,3.95,4.13,4.46,1.28.24,2.58.4,4.02.61v3.18h-26.05v-3.15c1.25-.2,2.53-.38,3.8-.62,2.78-.53,3.83-1.61,4.18-4.43.15-1.17.14-2.36.14-3.54.01-8.79,0-17.59,0-26.38,0-.72,0-1.44-.05-2.16-.15-3.11-1.03-4.18-4.04-4.94-1.08-.27-2.16-.49-3.36-.76Z"/>
      <path class="cls-1" d="m116.89,110.35v-2.53c5.62-1.56,11.15-3.1,16.93-4.7v2.17c0,12.73,0,25.46.01,38.19,0,1.57.11,3.15.26,4.71.26,2.63,1.4,3.86,4.02,4.36,1.34.26,2.7.41,4.16.63v3.2h-26.12v-3.19c1.36-.21,2.65-.38,3.92-.62,2.61-.5,3.64-1.51,4.04-4.11.19-1.22.19-2.49.19-3.73.01-8.86.01-17.72,0-26.58,0-1.05-.03-2.1-.13-3.14-.2-1.89-1.22-3.14-3.08-3.65-.82-.22-1.66-.38-2.49-.58-.56-.13-1.12-.27-1.71-.42Z"/>
      <path class="cls-1" d="m546.28,177.42c-1.98.52-330.67.49-332.44-.03.55-.19.86-.36,1.18-.4.52-.05,1.05-.02,1.58-.02,108.98,0,217.95,0,326.93.01.81,0,1.67-.23,2.76.43Z"/>
      <path class="cls-1" d="m601.62,177.29c.15-.09.3-.26.44-.26,66.88.41,133.77.83,200.65,1.26.23,0,.46.13.78.23-.29.92-.97.69-1.47.69-3.88,0-7.75-.03-11.63-.06-8.41-.07-16.82-.17-25.23-.23-11.37-.07-22.73-.1-34.1-.17-17.35-.1-34.69-.21-52.04-.32-20.04-.13-40.08-.26-60.12-.4-4.99-.03-9.98-.11-14.98-.17-.77-.01-1.53-.09-2.3-.13,0-.15,0-.29-.01-.44Z"/>
      <path class="cls-1" d="m128.5,91.22c-3.48.02-6.4-2.87-6.41-6.34,0-3.65,2.83-6.49,6.46-6.49,3.51,0,6.16,2.83,6.13,6.53-.03,3.49-2.76,6.28-6.19,6.3Z"/>
      <path class="cls-1" d="m636.34,89.65c-3.47.01-6.4-2.89-6.41-6.35,0-3.62,2.87-6.5,6.48-6.5,3.5,0,6.14,2.83,6.12,6.55-.02,3.49-2.77,6.29-6.19,6.3Z"/>
      <path class="cls-1" d="m541.94,76.81c3.5.01,6.16,2.85,6.12,6.55-.03,3.5-2.77,6.27-6.2,6.29-3.48.02-6.4-2.89-6.39-6.36,0-3.65,2.84-6.49,6.48-6.48Z"/>
      <path class="cls-1" d="m478.01,89.65c-3.48.04-6.42-2.84-6.44-6.31-.03-3.64,2.8-6.51,6.43-6.52,3.51-.02,6.17,2.79,6.17,6.5,0,3.49-2.73,6.3-6.15,6.34Z"/>
    </g>
  </g>
</svg>