<?xml version="1.0" encoding="UTF-8"?>
<svg id="Layer_2" data-name="Layer 2" xmlns="http://www.w3.org/2000/svg" viewBox="0 0 624.28 378.09">
  <defs>
    <style>
      .cls-1 {
        fill: #fff;
      }
    </style>
  </defs>
  <g id="Layer_1-2" data-name="Layer 1">
    <g>
      <path class="cls-1" d="m124.43,0c.69.19,1.39.37,2.08.57,6.97,1.94,11.47,9.21,10.04,16.19-1.51,7.37-8.33,12.47-15.61,11.42-5.49-.79-9.36-3.86-11.3-9.15-1.4-3.83-1.54-4.04-5.56-3.9-6.03.21-12.09.28-18.09.9-10.58,1.1-20.64,4.23-30.13,9-22.43,11.3-38.22,28.68-47.31,52.1-.35.89-.6,1.82-.89,2.73.14.07.29.14.43.21.45-.62.93-1.22,1.35-1.86,5.02-7.72,11.14-14.35,18.91-19.38,7.65-4.95,16.05-7.78,25.04-9.06,5.95-.84,11.92-.75,17.89-.74,5.38.01,10.76.06,16.14.08,10.89.03,21.78.06,32.68.09,8.43.03,16.87.08,25.3.09,24.58.03,49.15.04,73.73.07,4.91,0,9.83-.03,14.74.07,2.43.05,4.33-.79,6.02-2.51,10.15-10.22,20.35-20.41,30.54-30.6,2.11-2.11,4.22-4.24,6.39-6.29,5.52-5.21,12.08-7.72,19.65-6.74,8.76,1.14,18.21,7.22,20.7,19.09,2.39,11.41-3.93,22.99-14.8,27.18-3.39,1.31-6.95,1.73-10.54,1.74-16.61.04-33.21.08-49.82.03-2.52,0-4.43.84-6.18,2.59-18.27,18.26-36.58,36.49-54.88,54.72-8.7,8.67-17.38,17.36-26.11,26-4.06,4.02-7.34,8.58-9.66,13.78-4.83,10.79-7.38,22.11-7.64,33.93-.34,15.52,4.04,29.7,12.2,42.82,4.23,6.8,9.43,12.83,14.79,18.73,8.74,9.62,14.63,20.8,18.02,33.29,3.68,13.59,3.27,27.19-.52,40.69-3.23,11.5-8.31,22.09-15.91,31.37-9.75,11.91-22.2,19.78-36.8,24.38-8.52,2.68-17.25,4.33-26.19,4.43-15.79.17-30.25-4.23-43.24-13.22-14.68-10.15-25.83-23.19-32.07-40.09-4.42-11.97-5.9-24.31-4.35-37,2.32-18.94,10.34-35.08,23.78-48.57,1.27-1.27,2.51-2.56,3.78-3.82,33.29-33.3,66.56-66.62,99.89-99.88,27.26-27.21,54.59-54.35,81.89-81.53.7-.7,1.35-1.44,2.23-2.39-.69-.12-1.1-.24-1.51-.24-19.26,0-38.52,0-57.79.05-3.95.01-7.75,1.04-11.42,2.45-10.58,4.07-19.9,10-27.18,18.84-6.96,8.45-11.12,18.18-12.73,28.97-.53,3.53-.64,7.13-.82,10.7-1.14,23.01-11.66,40.42-31.38,52.2-9.18,5.49-19.28,8.17-29.98,8.15-28.48-.04-55.47-19.64-60.97-50.25-.76-4.23-1.46-8.59-1.23-12.84.74-13.47,3.33-26.62,9.06-38.92,11.85-25.44,30.98-43.01,57.55-52.33,7.67-2.69,15.56-4.41,23.69-4.82,4.9-.25,9.82-.27,14.73-.34,2.87-.04,3.36-.38,4.27-3.12,1.79-5.35,5.36-8.73,10.99-9.78.18-.03.34-.2.51-.3,1.2,0,2.39,0,3.59,0Z"/>
      <path class="cls-1" d="m478.71,234.5v4.72h-35.89v-4.68c1.46-.21,2.95-.41,4.43-.63.52-.08,1.05-.17,1.56-.29,3.82-.92,5.24-2.51,5.58-6.44.19-2.18.29-4.37.3-6.56.03-8.83.05-17.66,0-26.49-.02-3.51-.07-7.05-1.05-10.47-.4-1.39-.9-2.79-1.56-4.07-1.86-3.58-4.95-5.39-8.88-5.93-3.81-.52-7.38.22-10.83,1.82-3.39,1.58-6.4,3.75-9.38,5.99-.83.62-.87,1.38-.87,2.26.01,7.64,0,15.27,0,22.91,0,5.64-.03,11.29.02,16.93.01,1.72.16,3.45.4,5.15.36,2.54,1.77,4.26,4.36,4.8,1.42.3,2.87.52,4.3.77.51.09,1.02.17,1.59.26v4.43c-1.4.43-33.3.56-36.09.13v-4.58c1.57-.21,3.13-.42,4.69-.62,5.25-.68,6.88-2.43,7.17-7.73.04-.66.06-1.33.06-1.99,0-13.35.01-26.69-.01-40.04,0-1.45-.19-2.91-.36-4.36-.28-2.44-1.67-4-4-4.68-1.39-.41-2.83-.69-4.24-1.04-.44-.11-.87-.25-1.34-.38v-4.19c8.02-1.27,15.75-3.44,23.4-6.76v13.44c.86-.59,1.41-.99,1.98-1.37,4.17-2.82,8.29-5.74,12.54-8.44,3.61-2.3,7.64-3.24,11.95-3.08,5.2.19,9.46,2.31,12.99,6.04,2.03,2.15,3.45,4.69,4.67,7.53.54-.37,1.02-.7,1.5-1.03,3.97-2.77,7.88-5.65,11.93-8.3,4.54-2.97,9.5-4.63,15.05-4.2,7.18.55,12.58,3.82,16.01,10.2,2.65,4.93,3.39,10.3,3.42,15.79.05,11.22,0,22.44.03,33.66,0,2.05.17,4.11.43,6.14.3,2.35,1.69,3.85,4.02,4.38,1.42.32,2.86.53,4.3.77.51.09,1.02.15,1.65.23v4.69h-34.89c-.05-.44-.12-.76-.12-1.08-.01-1.12,0-2.25,0-3.54,1.43-.22,2.78-.44,4.13-.65.33-.05.66-.06.99-.12,3.74-.76,5.22-2.31,5.64-6.15.22-2.04.34-4.1.35-6.15.04-9.43.01-18.86.02-28.29,0-3.4-.27-6.77-1.26-10.04-1.56-5.1-4.7-8.57-10.16-9.48-3.55-.59-7.01-.1-10.33,1.27-3.91,1.61-7.3,4.04-10.6,6.63-.62.48-.68,1.03-.63,1.74.17,2.71.38,5.43.39,8.15.05,10.03,0,20.05.03,30.08,0,1.92.11,3.85.27,5.76.33,3.92,1.96,5.72,5.81,6.48,1.42.28,2.87.43,4.54.68Z"/>
      <path class="cls-1" d="m245.92,240.87c-7.68-3.04-13.63-7.31-14.41-16.38,5.83-2.44,10.84-5.9,14.91-10.91-.41-.29-.74-.58-1.11-.77-16.86-8.65-16.61-30.64-5.23-41.27,5.42-5.06,11.89-7.82,19.25-8.62,6.33-.69,12.26.64,17.94,3.32,1.06.5,2.08.75,3.24.7,6.44-.28,12.83-.92,19.15-2.19.69-.14,1.36-.49,2.01.24.72.82.54,1.6.06,2.36-1.35,2.12-2.7,4.24-4.13,6.3-.68.98-1.67,1.38-2.94,1.26-2.83-.28-5.68-.45-8.78-.69.42.72.77,1.31,1.12,1.91,5.45,9.38,4.55,21.92-2.23,30.08-4.15,5-9.62,7.84-15.85,9.27-5.17,1.19-10.39,1.26-15.59.12-1.03-.23-1.83-.06-2.45.79-1.01,1.38-2.21,2.68-2.98,4.18-1.4,2.76-.56,5.34,2.07,7.03,2.14,1.38,4.58,1.79,7.04,1.8,5.04.02,10.09-.09,15.13-.18,5.12-.09,10.22-.03,15.18,1.46,2.69.8,5.2,1.97,7.4,3.75,3.95,3.21,5.81,7.48,6.27,12.43.74,7.89-2.03,14.62-7.07,20.48-7.29,8.48-16.66,13.38-27.56,15.46-7.16,1.37-14.27,1.12-21.22-1.18-5.83-1.92-10.77-5.15-14.11-10.43-2.1-3.33-3.3-6.93-2.62-10.96.49-2.93,1.87-5.41,4.02-7.38,4-3.68,8.11-7.25,12.18-10.87.39-.35.79-.68,1.33-1.14Zm18.72,33.84c1.14-.06,2.48-.06,3.79-.2,4.67-.5,9.14-1.68,13.05-4.41,5.81-4.06,8.35-9.69,7.5-16.69-.6-4.93-3.26-8.52-8.05-10.2-1.86-.65-3.84-1.21-5.79-1.33-4.96-.3-9.95-.45-14.92-.4-3.18.03-6.39.54-9.12,2.39-3.58,2.42-6.42,5.56-8.24,9.52-1.07,2.33-1.51,4.78-1.03,7.37.85,4.57,3.57,7.77,7.39,10.13,4.66,2.88,9.84,3.81,15.42,3.82Zm11.7-83.72c.05-4.49-.61-8.85-2.4-12.99-1.18-2.72-2.8-5.11-5.15-6.96-5.49-4.3-12.96-3.56-17.48,1.74-1.53,1.79-2.65,3.82-3.33,6.05-2.27,7.43-1.97,14.78.93,21.98,1.1,2.74,2.79,5.11,5.09,7.01,4.77,3.94,11.23,4.05,15.92.27,2.01-1.62,3.42-3.68,4.41-6.04,1.49-3.54,2.02-7.25,2.01-11.07Z"/>
      <path class="cls-1" d="m349.92,171.54v-4.3c4.42-.42,8.82-.78,13.2-1.28,4.33-.5,8.65-1.16,13.22-1.79,0,.88,0,1.66,0,2.44,0,17.39,0,34.79.01,52.18,0,2.05.08,4.12.3,6.16.4,3.71,1.91,5.08,5.67,5.35,1.79.13,3.58.2,5.37.31.32.02.64.11,1.07.18v4.33c-8.55,1.97-17.09,3.95-25.84,5.97v-12.37c-.72.5-1.14.77-1.54,1.06-3.44,2.48-6.79,5.11-10.34,7.42-3.89,2.53-8.24,4.05-12.91,4.16-10.96.27-18.77-5.36-21.12-16.73-.61-2.96-.83-6.05-.85-9.09-.1-10.95-.02-21.91-.05-32.86,0-1.72-.14-3.45-.36-5.16-.39-3.04-1.61-4.31-4.6-4.94-1.68-.35-3.39-.62-5.19-.95v-4.25c8.03-1.03,15.95-2.05,23.98-3.08.03.31.09.63.08.94-.14,8.36-.34,16.72-.41,25.08-.06,7.63-.07,15.27.08,22.9.05,2.42.47,4.9,1.15,7.23,2.17,7.41,7.98,10.56,15.18,10.13,6.21-.37,11.42-3.15,16.03-7.2.76-.67.85-1.41.85-2.29-.02-4.58,0-9.16,0-13.74,0-8.17.03-16.33-.02-24.5-.01-1.91-.2-3.85-.55-5.72-.41-2.2-1.83-3.71-4.05-4.18-2.46-.52-4.96-.83-7.45-1.23-.26-.04-.51-.1-.88-.17Z"/>
      <path class="cls-1" d="m185.03,234.53c1.52-.22,2.95-.4,4.37-.63.78-.12,1.57-.26,2.34-.47,2.49-.67,4.03-2.27,4.41-4.83.25-1.7.43-3.43.44-5.15.03-13.21.03-26.42,0-39.63,0-1.45-.18-2.91-.38-4.35-.29-2.11-1.52-3.53-3.52-4.16-1.64-.52-3.34-.83-5.01-1.24-.5-.12-1.01-.23-1.58-.37v-4.04c8.12-1.5,16.1-3.54,24.01-6.8v2.6c0,19.05,0,38.11.02,57.16,0,1.79.17,3.58.36,5.35.32,2.98,1.93,4.89,4.91,5.49,2.13.43,4.3.72,6.59,1.1.37,1.42.19,2.91.11,4.39-1.43.45-34.76.56-37.07.11v-4.55Z"/>
      <path class="cls-1" d="m453.3,317.02c-.12.39-.23.58-.23.76.01,4.44-.05,8.89.09,13.33.1,3.02,1.05,3.9,4.06,4.4.98.16,1.95.31,3.07.49v2.4h-20.56v-2.37c.97-.18,2-.36,3.01-.58,1.98-.42,2.69-1.14,3.01-3.16.15-.98.23-1.98.23-2.97.01-13.54.01-27.07,0-40.61,0-4.25-.53-4.84-4.77-5.5-.25-.04-.5-.11-.88-.2v-2.28c2.2-.58,4.32-1.07,6.4-1.69,2.01-.6,3.99-1.35,6.26-2.12v6.69c.85-.42,1.37-.65,1.87-.93,1.79-1.01,3.56-2.05,5.36-3.05,5.14-2.84,10.63-2.28,15.09,1.56,3.68,3.17,5.5,7.29,5.75,12.05.41,7.75-2.54,14.1-8.54,19.02-3.77,3.09-8.13,5-12.9,5.86-1.3.24-2.74-.22-4.1-.44-.71-.11-1.38-.4-2.22-.65Zm-.26-18.46c0,3.52,0,7.03,0,10.55,0,.82.06,1.55.82,2.1,2.62,1.88,5.48,2.93,8.75,2.54,4.25-.51,7.2-2.83,9.05-6.61,2-4.07,2.31-8.39,1.69-12.81-.37-2.67-1.33-5.14-3.07-7.23-2.58-3.09-5.92-4.56-9.88-3.78-1.96.39-3.78,1.52-5.66,2.32-1.31.56-1.78,1.52-1.73,2.98.1,3.31.03,6.63.03,9.95Z"/>
      <path class="cls-1" d="m345.49,314.66v2.34h-24.11v-2.28c1.44-.25,2.82-.44,4.17-.74,2.33-.52,3.15-1.43,3.39-3.77.13-1.25.22-2.51.22-3.77.02-11.55.02-23.1,0-34.65,0-1.39-.1-2.79-.23-4.17-.26-2.68-1.28-3.78-3.9-4.25-1.17-.21-2.35-.34-3.63-.52v-2.36c.66-.04,1.3-.12,1.93-.13,7.04,0,14.08-.03,21.12,0,3.33.02,6.62.36,9.8,1.45,6.27,2.17,9.88,7.16,10.17,13.78.45,10.23-6.05,16.47-14.52,18.36-3.15.7-6.3.77-9.43-.25-1.12-.37-2.3-.56-3.62-.88,0,2.07,0,3.99,0,5.91,0,3.12,0,6.24.04,9.36.06,4.44.94,5.44,5.3,6.15,1.04.17,2.09.26,3.3.4Zm-8.64-25.1c2.33.98,4.56,1.23,6.82,1.15,6.58-.23,10.85-3.7,12.15-9.89.52-2.48.56-5.02.05-7.51-.98-4.85-3.85-8.02-8.7-9.28-2.47-.64-4.96-.81-7.47-.32-1.73.34-2.45.98-2.7,2.69-.14.98-.13,1.98-.13,2.97-.01,6.1,0,12.19,0,18.29v1.9Z"/>
      <path class="cls-1" d="m523.72,277.74v6.43c1.49-.99,2.68-1.8,3.89-2.56,1.46-.92,2.89-1.9,4.41-2.68,5.65-2.91,13.14-.61,15.34,6.55.63,2.06.83,4.15.83,6.28,0,5.51,0,11.01.01,16.52,0,.99.08,1.99.2,2.97.26,2.03.97,2.73,3.02,3.08.71.12,1.43.21,2.23.33v2.35h-17.94v-2.34c.84-.14,1.62-.23,2.38-.39,1.84-.4,2.58-1.21,2.87-3.08.06-.39.15-.79.14-1.18-.04-6.5-.05-12.99-.17-19.49-.02-1.09-.4-2.22-.82-3.25-1.06-2.55-3.04-3.89-5.82-4.12-4.03-.33-7.17,1.52-10.06,3.99-.33.28-.51.92-.51,1.4-.02,7.3-.03,14.6.05,21.9.03,2.79.87,3.57,3.68,3.94.58.08,1.16.2,1.8.32v2.32h-18.81v-2.32c.69-.12,1.33-.25,1.98-.33,3.24-.4,4.14-1.32,4.17-4.62.06-5.57.03-11.15.04-16.72,0-1.66.02-3.32-.04-4.98-.11-3.04-.8-3.83-3.74-4.44-.45-.09-.89-.23-1.4-.37v-2.05c4.1-1.15,8.08-2.28,12.27-3.45Z"/>
      <path class="cls-1" d="m593.68,311.43c.28.8.53,1.52.84,2.44-2.46,1.44-4.84,2.86-7.26,4.2-.35.19-.9.12-1.34.03-2.02-.4-3.48-1.55-4.38-3.41-.26-.53-.48-1.08-.79-1.79-.49.27-.93.49-1.35.76-1.62,1.03-3.24,2.07-4.85,3.12-4.39,2.87-8.78,1.03-11.33-1.3-2.67-2.43-3.85-5.53-3.52-9.12.21-2.36,1.24-4.39,3.26-5.67,1.44-.91,3.03-1.62,4.62-2.26,3.68-1.48,7.43-2.8,11.1-4.33,2.14-.89,2.21-1.08,1.91-3.32-.22-1.69-.5-3.44-1.16-5-1.09-2.57-3.16-4-6.04-4.15-2.33-.13-4,.91-5,2.91-.68,1.35-1.12,2.83-1.63,4.26-.44,1.23-.92,2.37-2.5,2.43-1.52.06-3.1-.91-3.81-2.4-.65-1.37-.53-2.46.79-3.56,4.11-3.45,8.66-6.24,13.92-7.39,2.95-.65,5.77.52,8.11,2.48,3.01,2.52,4.21,5.87,4.22,9.7.02,5.64,0,11.28.02,16.92,0,.98.09,2,.36,2.94.59,2.08,1.84,2.69,3.94,2.1.56-.16,1.12-.35,1.87-.58Zm-13.03-15.22c-3.6,1.67-6.83,3.16-10.06,4.66-.3.14-.56.36-.82.55-2.28,1.7-3.03,4.21-2.1,7.09.81,2.53,3.19,4.29,5.87,4.25,2.41-.03,4.51-1.01,6.35-2.5.4-.32.73-.99.74-1.5.06-4.04.03-8.08.03-12.55Z"/>
      <path class="cls-1" d="m412.9,314.7v2.28h-19.32v-2.27c.81-.12,1.64-.25,2.48-.38,2.41-.38,3.19-1.14,3.54-3.56.12-.85.16-1.72.16-2.58,0-14.13.01-28.26,0-42.38,0-.92-.13-1.85-.2-2.77-.13-1.64-1.17-2.46-2.64-2.83-.96-.24-1.94-.38-3.03-.59v-2.09c4.21-.96,8.38-1.91,12.83-2.93.03.7.1,1.46.1,2.21,0,17.05,0,34.09.01,51.14,0,1.06.07,2.12.14,3.18.1,1.68,1,2.7,2.64,3.02,1.03.2,2.08.34,3.31.54Z"/>
      <path class="cls-1" d="m597.85,305.5c.98-.15,1.74-.27,2.61-.41.32.8.62,1.52.9,2.24.76,2.01,1.79,3.85,3.38,5.33,2.01,1.88,4.43,2.68,7.12,2.45,2.26-.19,4.07-1.27,4.94-3.47.93-2.33.69-4.62-.92-6.56-.87-1.05-2.02-1.92-3.19-2.65-1.51-.95-3.2-1.61-4.74-2.51-1.72-1-3.47-1.98-5.01-3.21-5.6-4.46-4.42-12.29.24-15.91,3.64-2.82,7.84-3.42,12.25-2.97,1.96.2,3.89.67,5.88,1.03.44,3.31.85,6.45,1.29,9.72-.8.23-1.54.45-2.42.71-.27-.6-.48-1.13-.74-1.64-.66-1.29-1.21-2.67-2.05-3.84-1.9-2.65-4.67-3.44-7.76-2.92-3.92.66-5.5,6.06-2.68,9.23.94,1.06,2.22,1.89,3.46,2.62,1.77,1.03,3.68,1.82,5.49,2.79,1.29.68,2.54,1.44,3.76,2.24,6.96,4.57,5.18,13.53.34,17.18-3.57,2.69-7.63,3.63-12.01,3.23-2.51-.23-4.98-.76-7.3-1.81-.62-.28-1.19-.52-1.31-1.32-.48-3.13-1-6.25-1.53-9.55Z"/>
      <path class="cls-1" d="m506.26,314.67v2.32h-19.13v-2.27c.75-.12,1.51-.25,2.28-.37,2.38-.37,3.2-1.17,3.53-3.57.1-.72.11-1.45.11-2.18,0-6.56,0-13.13,0-19.69,0-.33,0-.66-.01-.99-.13-2.93-.76-3.67-3.63-4.3-.57-.12-1.14-.3-1.77-.46v-1.88c4.15-1.15,8.2-2.28,12.42-3.45.03.7.09,1.4.09,2.1,0,9.35,0,18.7,0,28.05,0,.86,0,1.73.07,2.58.17,2.44,1.08,3.41,3.51,3.79.78.12,1.56.21,2.54.34Z"/>
      <path class="cls-1" d="m370.43,317.02v-2.3c.86-.13,1.69-.25,2.52-.39,2.34-.39,3.25-1.33,3.38-3.69.1-1.85.08-3.71.09-5.57,0-5.24,0-10.49,0-15.73,0-.93-.02-1.86-.1-2.78-.12-1.31-.79-2.23-2.11-2.58-1.01-.27-2.02-.54-3.07-.82v-1.89c4.12-1.15,8.11-2.28,12.29-3.45.03.67.09,1.36.09,2.05,0,9.42,0,18.85,0,28.27,0,.8-.01,1.6.07,2.39.28,2.58,1.18,3.47,3.74,3.83.78.11,1.56.22,2.41.34v2.32h-19.3Z"/>
      <path class="cls-1" d="m436.78,314.67v2.31h-19.29v-2.29c.75-.11,1.46-.23,2.17-.33,2.69-.37,3.63-1.29,3.71-4,.1-3.51.07-7.03.08-10.55,0-3.65,0-7.3,0-10.95,0-.73-.03-1.46-.09-2.19-.11-1.4-.79-2.36-2.2-2.72-.96-.25-1.92-.5-2.98-.78v-1.92c4.06-1.14,8.11-2.27,12.36-3.46,0,.74,0,1.44,0,2.15,0,9.42,0,18.85,0,28.27,0,.99.09,1.98.18,2.97.17,1.89,1.38,2.78,3.11,3.09.91.16,1.83.25,2.94.4Z"/>
      <path class="cls-1" d="m211.28,137.38c.03,4.98-3.98,9.15-8.8,9.17-4.74.02-9.03-4.25-9.06-9.02-.03-5.15,4.01-9.26,9.13-9.27,4.94-.01,8.69,3.92,8.73,9.13Z"/>
      <path class="cls-1" d="m379.51,259.59c2.55-.04,4.57,2.01,4.64,4.71.06,2.54-2.07,4.79-4.57,4.82-2.47.04-4.72-2.15-4.79-4.65-.07-2.62,2.09-4.85,4.72-4.88Z"/>
      <path class="cls-1" d="m431.18,264.39c0,2.55-2.16,4.76-4.66,4.74-2.48-.02-4.69-2.25-4.7-4.73-.01-2.64,2.17-4.81,4.81-4.8,2.54.01,4.54,2.12,4.55,4.8Z"/>
      <path class="cls-1" d="m491.43,264.29c.03-2.7,2.17-4.77,4.84-4.7,2.56.07,4.45,2.17,4.41,4.89-.04,2.6-2.19,4.72-4.7,4.64-2.53-.08-4.58-2.26-4.55-4.82Z"/>
    </g>
  </g>
</svg>