<?xml version="1.0" encoding="UTF-8"?>
<svg id="Layer_2" data-name="Layer 2" xmlns="http://www.w3.org/2000/svg" viewBox="0 0 625.24 474.11">
  <defs>
    <style>
      .cls-1 {
        fill: #fff;
      }
    </style>
  </defs>
  <g id="Layer_1-2" data-name="Layer 1">
    <g>
      <path class="cls-1" d="m155.34,0c.95.23,1.91.46,2.86.71,7.72,2.04,13.16,9.11,13.16,17.11,0,8.02-5.35,15.01-13.13,17.12-8.75,2.38-17.86-2.4-20.89-10.96-1.72-4.87-1.91-5.03-7.17-4.99-9.16.06-18.3.4-27.36,1.88-15.46,2.53-29.87,7.91-43.1,16.24-22.92,14.43-39.39,34.26-49.07,59.63-.35.93-.63,1.89-.91,2.85-.06.2.02.45.09,1.25.78-1.09,1.32-1.77,1.79-2.5,6.23-9.61,13.81-17.9,23.44-24.23,8.81-5.8,18.48-9.36,28.85-11.16,7.75-1.35,15.56-1.51,23.39-1.42,5.16.06,10.32.14,15.48.17,16.9.08,33.8.17,50.7.19,46.46.05,92.92.03,139.38.12,3.24,0,5.71-1,7.98-3.28,15.15-15.22,30.36-30.39,45.58-45.55,4.4-4.39,9.6-7.42,15.74-8.63,8.65-1.71,16.51.35,23.62,5.38,9.85,6.98,14.34,19.31,11.52,31.34-2.71,11.53-12.4,20.65-24.09,22.51-2.45.39-4.97.57-7.45.58-20.73.06-41.46.09-62.2.03-3.22,0-5.72,1.02-8,3.29-22.9,22.9-45.85,45.75-68.79,68.61-11.03,10.99-22.07,21.95-33.11,32.93-5.26,5.23-9.36,11.27-12.27,18.07-6.02,14.09-9.19,28.81-9.08,44.16.12,17.02,4.79,32.8,13.26,47.51,4.47,7.75,9.83,14.83,15.77,21.5,2.21,2.49,4.45,4.96,6.61,7.49,11.97,13.98,19.5,30.1,22.66,48.18,2.67,15.27,1.28,30.33-3.28,45.13-4.9,15.9-12.54,30.23-24.13,42.3-12.3,12.81-27.3,21.04-44.25,25.91-9.23,2.65-18.64,4.35-28.23,4.62-16.45.45-32.11-2.97-46.52-11.01-24.25-13.53-41.95-32.86-50.68-59.56-11.19-34.19-3.03-71.79,21.02-98.56,2.34-2.6,4.74-5.14,7.21-7.61,42.9-42.93,85.78-85.88,128.73-128.76,33.7-33.64,67.49-67.2,101.23-100.8.91-.91,1.74-1.9,2.6-2.86-.06-.17-.13-.33-.19-.5-.63,0-1.25,0-1.88,0-23.65,0-47.29-.02-70.94.02-5.64,0-11.03,1.4-16.24,3.46-13.8,5.47-25.79,13.45-34.88,25.37-7.83,10.27-12.54,21.89-14.37,34.64-.59,4.1-.88,8.28-.95,12.43-.63,35.79-26.08,66.69-61,74.5-38.63,8.64-83.23-15.3-92.28-60.12-1.96-9.72-2.06-19.49-.54-29.28,1.76-11.37,4.16-22.6,8.73-33.2C23.91,59.48,47.48,36.51,81.01,23.97c10.66-3.99,21.65-6.45,33.03-7,5.82-.28,11.64-.32,17.47-.39,3.8-.05,4.25-.37,5.51-4.03,2.33-6.79,6.93-10.99,14.13-12.16.41-.07.8-.26,1.2-.39,1,0,2,0,3,0Z"/>
      <path class="cls-1" d="m474.93,263.85v3.31c-1.78.53-24.35.67-27.77.17v-3.47c1.21-.2,2.42-.4,3.63-.61,3.17-.55,4.46-1.89,4.77-5.12.15-1.57.16-3.16.16-4.74,0-7.82.04-15.64-.09-23.46-.03-2.05-.41-4.15-.98-6.12-1.48-5.15-5.51-7.8-11.53-7.32-4.21.34-7.67,2.47-11.11,4.73-1.86,1.22-2.51,2.57-2.38,4.88.32,5.31.19,10.64.24,15.97.05,5.16.01,10.32.19,15.47.13,3.87,1.4,5.13,5.19,5.76.98.16,1.96.36,3.1.57v3.55h-28.6v-3.57c1.21-.18,2.5-.39,3.8-.58,3.57-.53,4.79-1.68,5.31-5.18.17-1.15.21-2.32.21-3.48.02-7.82.08-15.65-.03-23.47-.03-2.39-.3-4.84-.91-7.14-1.59-6.05-5.6-7.7-10.54-7.55-5.41.16-9.73,3.11-13.79,6.37-.41.33-.59,1.17-.6,1.77-.02,10.65,0,21.3.01,31.95,0,.58.07,1.16.16,1.74.54,3.49,1.54,4.46,5.12,5.03.98.16,1.96.35,3.1.55v3.56h-28.74v-3.54c1.26-.19,2.63-.4,3.99-.59,3.96-.55,5.24-1.8,5.38-5.81.16-4.49.16-8.98.15-13.48,0-6.99,0-13.98-.15-20.97-.08-3.81-1.19-4.94-4.9-5.77-.89-.2-1.78-.4-2.84-.64v-2.94c6.21-1.73,12.33-3.43,18.61-5.17v9.8c.93-.56,1.53-.9,2.1-1.27,3.28-2.12,6.5-4.34,9.85-6.34,3.23-1.92,6.8-2.69,10.55-2.15,5.22.75,9.02,3.59,11.59,8.15.2.36.38.74.57,1.11.16.29.33.57.59,1.01.5-.28.99-.52,1.43-.82,2.96-2,5.87-4.1,8.89-6,4.33-2.73,8.95-4.23,14.21-3.27,5.54,1.01,9.38,4.05,11.64,9.11,1.45,3.23,2,6.68,2,10.21.02,9.32.02,18.64.05,27.96,0,1.08.13,2.15.26,3.23.29,2.42,1.81,3.63,4.1,4.02,1.3.22,2.6.41,3.97.63Z"/>
      <path class="cls-1" d="m252.39,268.8c-5.81-2.54-10.74-5.68-11.25-12.78,4.6-2.02,8.64-4.54,11.81-8.48-.56-.34-.96-.62-1.39-.85-13.29-7.07-12.85-25.34-1.87-33.27,8.17-5.89,17.08-7.05,26.44-3.26,2.34.95,4.6,1.3,7.02,1.01,4.12-.5,8.24-1.06,12.36-1.55.51-.06,1.35-.04,1.51.24.27.46.33,1.28.1,1.77-.55,1.2-1.29,2.32-2,3.44-1.28,2.01-2.94,2.98-5.46,2.36-1.42-.35-2.96-.23-4.7-.33.23.63.33,1.07.54,1.46,6.64,12.41.99,25.95-12.56,29.99-4.36,1.3-8.82,1.58-13.32.79-2.51-.44-4.75,1.27-5.68,4.31-.64,2.08.22,4.1,2.55,5.02,1.58.63,3.36,1.02,5.06,1.05,5.57.12,11.16-.11,16.72.07,2.71.09,5.49.48,8.08,1.27,8.63,2.63,11.12,9.65,10.16,16.89-.54,4.06-2.41,7.57-4.99,10.72-8.83,10.78-25.5,15.94-38.87,11.97-4.83-1.43-8.99-3.91-11.84-8.21-3.61-5.44-3.1-10.54,1.66-15.01,2.67-2.5,5.53-4.8,8.3-7.19.49-.42.98-.85,1.65-1.43Zm14.27,26.17c5.04-.07,9.2-.68,13.01-2.79,4.2-2.32,6.76-5.77,7.38-10.6.67-5.24-2.25-9.81-7.29-11.3-1.03-.3-2.1-.57-3.17-.62-4.39-.2-8.79-.51-13.18-.39-6.42.18-10.58,3.92-13.26,9.43-1.73,3.57-1.01,6.97,1.35,10.04,1.61,2.09,3.77,3.46,6.18,4.48,3.12,1.31,6.39,1.7,8.98,1.74Zm10.08-65.25c0-.91.08-1.83-.01-2.74-.42-4.03-1.47-7.86-4.28-10.94-3-3.3-6.72-4.54-11.04-3.17-3.29,1.04-5.38,3.49-6.69,6.62-1.76,4.19-1.87,8.55-1.19,12.97.45,2.91,1.41,5.64,3.18,8.02,2.56,3.45,5.91,5.36,10.3,4.76,4.08-.56,6.66-3.13,8.27-6.77,1.23-2.79,1.62-5.73,1.46-8.76Z"/>
      <path class="cls-1" d="m300.41,214.92v-3.28c6.39-.8,12.7-1.58,19.23-2.4,0,.82,0,1.46,0,2.11-.11,11.23-.26,22.46-.31,33.69-.01,2.07.14,4.18.58,6.19,1.68,7.77,7.33,10.05,13.37,9.43,4.33-.44,8.09-2.36,11.44-5.12.84-.69,1.23-1.45,1.23-2.55-.06-10.15-.08-20.3-.12-30.45,0-.75-.05-1.5-.16-2.24-.4-2.69-1.6-4-4.26-4.5-1.86-.35-3.75-.56-5.74-.85-.08-.65-.19-1.2-.21-1.76-.01-.49.09-.97.14-1.55,6.97-.78,13.86-1.56,21.12-2.38,0,.96,0,1.85,0,2.73,0,13.73,0,27.46.01,41.19,0,1.32.15,2.65.33,3.96.26,1.89,1.41,2.95,3.3,3.17,1.97.22,3.95.4,6.11.62v3.39c-6.71,1.51-13.46,3.02-20.5,4.6v-9.5c-1,.67-1.58,1.06-2.16,1.44-3.05,2.01-5.98,4.24-9.17,5.98-3.96,2.15-8.25,2.84-12.8,1.99-6.18-1.16-10.2-4.75-12-10.64-.79-2.58-1.12-5.38-1.17-8.09-.15-8.07-.03-16.14-.07-24.21-.01-2.16-.18-4.32-.39-6.47-.2-2.07-1.42-3.29-3.49-3.65-1.38-.24-2.75-.53-4.33-.83Z"/>
      <path class="cls-1" d="m608.7,238.92h-30.4c-.08.73-.2,1.37-.2,2.01-.01,5.49-.03,10.98,0,16.48,0,1.33.19,2.65.33,3.97.2,1.89,1.26,3.03,3.1,3.42,1.53.33,3.07.61,4.69.93v2.37h-24.14v-2.4c.89-.15,1.76-.33,2.64-.44,4.02-.51,5.14-1.7,5.28-5.81.07-2.08.05-4.16.05-6.24,0-10.82,0-21.63,0-32.45,0-1.25.01-2.5-.11-3.74-.3-3.09-1.43-4.25-4.47-4.75-1.07-.17-2.13-.32-3.37-.5-.06-.75-.12-1.47-.17-2.08.72-.69,21.14-.8,24.2-.23.06.2.18.42.18.65,0,.48-.05.97-.09,1.61-1.31.2-2.53.35-3.74.57-2.67.48-3.79,1.54-4.07,4.26-.25,2.48-.28,4.98-.32,7.47-.05,3.48-.01,6.96-.01,10.38,2.11.56,24.49.77,30.68.32.08-.43.25-.89.25-1.36,0-4.83,0-9.65-.02-14.48,0-.66-.01-1.34-.1-1.99-.39-3.01-1.56-4.17-4.62-4.65-1.06-.16-2.13-.33-3.37-.53-.05-.75-.1-1.45-.14-1.99.63-.71,20.46-.87,24.2-.36.1.13.27.25.27.38.03.57.01,1.14.01,1.71-.29.14-.49.3-.72.35-1.38.27-2.78.47-4.16.77-1.73.37-2.78,1.44-3.01,3.22-.15,1.23-.33,2.48-.33,3.72-.02,12.81-.01,25.63-.01,38.44,0,.17,0,.33,0,.5.14,5.12,1.04,6.37,6.12,6.85.65.06,1.29.27,2.04.43v2.33h-24.3v-2.4c1.27-.2,2.5-.34,3.71-.58,3.16-.64,4.27-1.69,4.33-4.83.13-6.9.05-13.81.05-20.71,0-.15-.12-.29-.26-.63Z"/>
      <path class="cls-1" d="m509.61,211.72v-2.39c.5-.06.9-.16,1.3-.16,8.65.04,17.31-.04,25.95.21,2.6.07,5.29.74,7.74,1.67,7.88,2.99,10.39,10.04,9.71,16.77-.87,8.58-6.52,14.58-15.09,16.35-3.3.68-6.58.84-9.84-.29-1.07-.37-2.23-.51-3.49-.79-.11.57-.25.95-.25,1.33,0,4.66-.06,9.32.03,13.97.11,5.36,1.08,6.32,6.35,6.89.81.09,1.6.27,2.46.41v2.41h-24.87v-2.41c.99-.16,1.95-.33,2.92-.46,3.75-.52,4.93-1.72,5-5.52.09-4.99.05-9.98.06-14.97,0-7.9,0-15.8,0-23.71,0-1.33,0-2.67-.12-3.99-.31-3.22-1.45-4.35-4.66-4.81-1.05-.15-2.1-.34-3.21-.52Zm16.02,27.78c2.67,1.1,5.13,1.39,7.64,1.24,6.37-.38,10.67-3.95,12.03-10.01.62-2.78.66-5.63.05-8.41-1.04-4.8-3.95-7.99-8.74-9.24-1.75-.46-3.62-.77-5.4-.67-4.72.25-5.53.73-5.57,5.58-.05,5.57-.01,11.13-.01,16.7,0,1.57,0,3.14,0,4.82Z"/>
      <path class="cls-1" d="m233.66,263.89v3.53h-29.62c-.07-.58-.15-1.13-.18-1.68-.03-.57,0-1.14,0-1.85,1.45-.23,2.75-.44,4.04-.64,3.51-.54,4.75-1.75,5.23-5.28.16-1.15.17-2.32.17-3.49.01-9.73.01-19.47,0-29.2,0-1.16-.05-2.33-.18-3.48-.25-2.22-1.41-3.67-3.66-4.17-1.45-.32-2.9-.69-4.49-1.07v-2.84c6.29-1.7,12.57-3.4,19.06-5.16.04.76.11,1.63.11,2.51,0,14.23,0,28.45.01,42.68,0,1.58.03,3.17.19,4.73.25,2.4,1.52,4.01,3.98,4.49,1.71.33,3.43.59,5.34.92Z"/>
      <path class="cls-1" d="m501.06,238.34c-.03,4.59-3.67,8.11-8.31,8.05-4.48-.06-8.06-3.63-8.09-8.08-.03-4.53,3.64-8.17,8.24-8.17,4.63,0,8.18,3.57,8.15,8.19Z"/>
      <path class="cls-1" d="m225.02,188.47c-.04,3.95-3.27,7.06-7.24,6.96-3.94-.09-7.11-3.36-7.01-7.23.1-3.93,3.26-6.93,7.3-6.93,4,0,6.99,3.1,6.95,7.2Z"/>
    </g>
  </g>
</svg>