<?xml version="1.0" encoding="UTF-8"?>
<svg id="Layer_2" data-name="Layer 2" xmlns="http://www.w3.org/2000/svg" viewBox="0 0 325.6 387.68">
  <defs>
    <style>
      .cls-1 {
        fill: #fff;
      }
    </style>
  </defs>
  <g id="Layer_1-2" data-name="Layer 1">
    <path class="cls-1" d="m325.6,30c-.14.97-.25,1.94-.44,2.9-1.95,9.98-10.5,17.91-20.56,19.23-3.47.45-6.95.4-10.43.41-12.66.03-25.33.02-37.99.03-2.81,0-5.62.06-8.43,0-2.24-.05-4.04.74-5.61,2.33-4.07,4.11-8.19,8.15-12.29,12.23-10.4,10.37-20.8,20.73-31.18,31.12-9.53,9.55-19.02,19.15-28.55,28.71-3.3,3.31-6.6,6.61-10.03,9.77-5.98,5.51-10.23,12.13-13.06,19.69-2.78,7.44-4.66,15.09-5.54,23-.63,5.65-.69,11.3-.12,16.94,1.05,10.36,4.17,20.09,9.08,29.26,3.91,7.3,8.8,13.89,14.26,20.08,3.14,3.56,6.39,7.06,9.2,10.87,6.98,9.48,11.7,20.04,14.18,31.58,1.37,6.34,1.89,12.75,1.59,19.22-.42,8.96-2.33,17.62-5.43,26.02-3.41,9.24-8.06,17.78-14.39,25.37-8.74,10.48-19.63,17.93-32.35,22.73-7.5,2.83-15.25,4.69-23.22,5.66-1.22.15-2.44.2-3.66.32-.38.04-.76.14-1.14.21h-9.5c-1.21-.15-2.42-.31-3.63-.44-6.81-.7-13.39-2.32-19.73-4.9-14.23-5.79-25.94-14.99-35.41-26.94-13.67-17.26-19.3-37.01-17.26-58.93.7-7.49,2.5-14.71,5.19-21.73,4.05-10.56,10.05-19.89,17.96-27.96,6.15-6.28,12.37-12.48,18.57-18.71,11.26-11.3,22.52-22.59,33.81-33.86,25.07-25.03,50.14-50.05,75.23-75.06,11.8-11.76,23.64-23.49,35.44-35.25,9.78-9.75,19.53-19.54,29.28-29.32.57-.57,1.07-1.21,1.75-1.99-.61-.03-.95-.06-1.29-.06-19.04,0-38.07,0-57.11,0-2.9,0-5.77.22-8.6.87-5.21,1.2-10.05,3.32-14.73,5.84-16.36,8.81-26.75,22.23-31.08,40.32-1.25,5.23-1.64,10.54-1.73,15.89-.07,4.25-.57,8.45-1.58,12.57-4.16,16.89-13.58,30.08-28.29,39.33-13.2,8.3-27.63,11.35-43.07,8.87-12.79-2.05-24.03-7.5-33.54-16.32C8.37,148.97,1.97,135.34.43,119.37.36,118.55.15,117.74,0,116.93c0-2.3,0-4.59,0-6.89.18-1.33.38-2.65.53-3.98.63-5.31,1.56-10.56,2.79-15.76,4.8-20.35,15.19-37.39,30.56-51.42,11.15-10.17,24.19-17.05,38.57-21.44,9.96-3.05,20.2-4.09,30.58-4.04,1.7,0,3.4.07,5.1.1,2.32.04,3.24-.62,3.91-2.81.1-.34.18-.69.31-1.02,2.06-5.48,5.97-8.83,11.79-9.55,9.86-1.21,17.87,7.78,15.75,17.49-1.39,6.39-7.07,11.11-13.81,11.3-6.48.19-12.09-4.14-13.84-10.08-.86-2.94-1.57-3.45-4.67-3.42-5.18.04-10.36.1-15.54.54-4.62.39-9.2,1-13.71,2.08-18.59,4.46-34.62,13.43-48,27.11-9.8,10.03-17.09,21.62-21.9,34.78-.27.72-.44,1.48-.7,2.37.82-.27,1.13-.77,1.46-1.26,1.29-1.9,2.54-3.83,3.92-5.66,6.62-8.76,14.83-15.54,24.98-19.85,8.31-3.53,17.03-5.07,26-5.24,5.26-.1,10.52.07,15.79.08,13.46.04,26.91.07,40.37.09,15.12.02,30.24.03,45.36.05,17.37.02,34.75.03,52.12.05,7.6,0,15.2.03,22.8.06,1.92,0,3.55-.61,4.91-1.99,1.69-1.72,3.41-3.42,5.12-5.13,11.07-11.04,22.06-22.16,33.23-33.1,6.16-6.04,13.63-8.51,22.2-6.71,8.01,1.69,16.94,7.78,19.2,19.27.18.92.29,1.85.42,2.78v4.28Z"/>
  </g>
</svg>